<?xml version="1.0" encoding="UTF-8"?>
<svg width="40px" height="74px" viewBox="0 0 40 74" version="1.1" xmlns="http://www.w3.org/2000/svg" xmlns:xlink="http://www.w3.org/1999/xlink">
    <!-- Generator: Sketch 50.2 (55047) - http://www.bohemiancoding.com/sketch -->
    <title>surfboard-with-shadow</title>
    <desc>Created with Sketch.</desc>
    <defs></defs>
    <g id="Page-1" stroke="none" stroke-width="1" fill="none" fill-rule="evenodd">
        <g id="Desktop-HD" transform="translate(-123.000000, -69.000000)" fill="#17157C" fill-rule="nonzero">
            <g id="surfboard-with-shadow" transform="translate(123.000000, 69.278689)">
                <path d="M38.7662509,70.9800413 L19.3021971,70.9800413 C20.5121935,69.8368702 21.412326,68.3535338 21.8423413,66.6502443 C23.5921705,59.7196446 26.482589,46.1678264 26.1801285,33.2743282 C25.9993616,25.5741237 24.3880381,17.3159556 21.7590528,10.6174688 C20.5061782,7.42499385 17.1545883,0 13.1010616,0 C9.04753495,0 5.69594503,7.42499385 4.44307044,10.6173148 C1.81408515,17.3158017 0.202761642,25.5736619 0.0219948043,33.2740204 C-0.280619988,46.1662872 2.60979856,59.7190289 4.35962772,66.6500904 C5.36942336,70.649419 8.96409224,73.442623 13.1010616,73.442623 L38.7660967,73.442623 C39.4475198,73.442623 40,72.891278 40,72.2112552 C40,71.5312323 39.447674,70.9800413 38.7662509,70.9800413 Z M6.75278323,66.0484133 C5.03364742,59.2384877 2.19335619,45.9326352 2.48918451,33.3317408 C2.66331912,25.9079783 4.2131017,17.9562669 6.74075268,11.5154437 C8.63340615,6.69325354 10.5350054,4.10291747 11.8670041,3.04455686 L11.8670041,56.3966447 C11.8670041,57.0766676 12.4194843,57.6280125 13.1009074,57.6280125 C13.7823305,57.6280125 14.3348107,57.0766676 14.3348107,56.3966447 L14.3348107,3.04455686 C15.6668094,4.10291747 17.5684086,6.69325354 19.4610621,11.5154437 C21.9888673,17.9562669 23.5386499,25.9081322 23.7126303,33.3317408 C24.0083044,45.9340205 21.1683216,59.2389494 19.4488773,66.0484133 C18.818507,68.5456272 16.7989157,70.3937563 14.3346565,70.8625996 L14.3346565,64.2773986 C14.3346565,63.5973757 13.7821763,63.0460308 13.1007532,63.0460308 C12.41933,63.0460308 11.8668498,63.5973757 11.8668498,64.2773986 L11.8668498,70.8625996 C9.40289911,70.3937563 7.38330784,68.5456272 6.75278323,66.0484133 Z" id="Shape"></path>
            </g>
        </g>
    </g>
</svg>